<svg width="45" height="44" viewBox="0 0 45 44" fill="none" xmlns="http://www.w3.org/2000/svg">
<path d="M26.8999 8.38095C26.8999 6.72336 27.416 5.10298 28.383 3.72474C29.3499 2.3465 30.7243 1.2723 32.3323 0.637962C33.9403 0.00362728 35.7097 -0.162343 37.4167 0.161038C39.1237 0.484419 40.6917 1.28263 41.9224 2.45473C43.1531 3.62682 43.9913 5.12017 44.3308 6.74591C44.6704 8.37166 44.4961 10.0568 43.83 11.5882C43.164 13.1196 42.0361 14.4286 40.5889 15.3495C39.1418 16.2704 37.4404 16.7619 35.6999 16.7619L35.6999 14.6667C37.0053 14.6667 38.2813 14.298 39.3667 13.6073C40.452 12.9167 41.298 11.935 41.7975 10.7864C42.297 9.63783 42.4277 8.37398 42.1731 7.15467C41.9184 5.93536 41.2898 4.81536 40.3668 3.93628C39.4438 3.05721 38.2678 2.45855 36.9875 2.21602C35.7072 1.97348 34.3802 2.09796 33.1742 2.57371C31.9682 3.04946 30.9374 3.85512 30.2122 4.8888C29.487 5.92248 29.0999 7.13776 29.0999 8.38095H26.8999Z" fill="white"/>
<path d="M26.8999 36.6667C26.8999 38.1171 27.3515 39.5349 28.1976 40.7408C29.0437 41.9468 30.2462 42.8867 31.6532 43.4418C33.0602 43.9968 34.6084 44.1421 36.1021 43.8591C37.5958 43.5761 38.9678 42.8777 40.0446 41.8521C41.1215 40.8265 41.8548 39.5199 42.1519 38.0973C42.4491 36.6748 42.2966 35.2003 41.7138 33.8603C41.131 32.5203 40.144 31.375 38.8778 30.5692C37.6115 29.7634 36.1228 29.3333 34.5999 29.3333L34.5999 31.4233C35.6888 31.4233 36.7532 31.7308 37.6586 32.307C38.564 32.8831 39.2696 33.702 39.6863 34.6601C40.103 35.6182 40.212 36.6725 39.9996 37.6896C39.7872 38.7067 39.2628 39.641 38.4929 40.3743C37.7229 41.1076 36.7419 41.6069 35.674 41.8093C34.606 42.0116 33.499 41.9077 32.493 41.5109C31.487 41.114 30.6272 40.442 30.0222 39.5797C29.4173 38.7174 29.0944 37.7037 29.0944 36.6667H26.8999Z" fill="white"/>
<line x1="8.19995" y1="30.3811" x2="34.6" y2="30.3811" stroke="white" stroke-width="2.09524"/>
<line x1="0.5" y1="15.7143" x2="35.7" y2="15.7143" stroke="white" stroke-width="2.09524"/>
<line x1="8.19995" y1="23.0476" x2="41.2" y2="23.0476" stroke="white" stroke-width="2.09524"/>
</svg>
